<?xml version="1.0" encoding="UTF-8"?> <svg xmlns="http://www.w3.org/2000/svg" width="200" height="200" viewBox="0 0 200 200" fill="none"><path d="M146.75 8H54.25C28.7068 8 8 28.7068 8 54.25V146.75C8 172.293 28.7068 193 54.25 193H146.75C172.293 193 193 172.293 193 146.75V54.25C193 28.7068 172.293 8 146.75 8Z" stroke="black" stroke-width="12" stroke-linecap="round" stroke-linejoin="round"></path><path d="M100.5 136C120.106 136 136 120.106 136 100.5C136 80.8939 120.106 65 100.5 65C80.8939 65 65 80.8939 65 100.5C65 120.106 80.8939 136 100.5 136Z" stroke="black" stroke-width="12" stroke-linecap="round" stroke-linejoin="round"></path><path d="M151 47V47.0045" stroke="black" stroke-width="16" stroke-linecap="round" stroke-linejoin="round"></path></svg> 