<?xml version="1.0" encoding="UTF-8"?> <svg xmlns="http://www.w3.org/2000/svg" width="200" height="200" viewBox="0 0 200 200" fill="none"><path d="M193 27.023C183.75 31.5555 174.685 33.3963 165.25 36.1805C154.881 24.4793 139.507 23.8318 124.735 29.3633C109.963 34.8948 100.287 48.4183 100.5 63.9305V73.1805C70.4838 73.9483 43.7513 60.2768 26.5 36.1805C26.5 36.1805 -12.1835 104.936 63.5 137.931C46.184 149.465 28.9142 157.245 8 156.431C38.599 173.108 71.9453 178.843 100.815 170.463C133.93 160.843 161.143 136.025 171.586 98.8493C174.702 87.5427 176.248 75.8617 176.183 64.134C176.165 61.8308 190.151 38.493 193 27.0138V27.023Z" stroke="black" stroke-width="12" stroke-linecap="round" stroke-linejoin="round"></path></svg> 